<mxfile host="app.diagrams.net" modified="2024-02-27T21:21:47.016Z" agent="Mozilla/5.0 (Macintosh; Intel Mac OS X 10_15_7) AppleWebKit/605.1.15 (KHTML, like Gecko) Version/16.1 Safari/605.1.15" version="23.1.7" etag="qhV4S_-pWiVP7NVnW89c" type="github">
  <diagram name="第 1 页" id="56FRBQV8kUOtuGtBG-ab">
    <mxGraphModel>
      <root>
        <mxCell id="0" />
        <mxCell id="1" parent="0" />
      </root>
    </mxGraphModel>
  </diagram>
</mxfile>
